<svg width="40" height="40" viewBox="0 0 40 40" fill="none" xmlns="http://www.w3.org/2000/svg">
<path fill-rule="evenodd" clip-rule="evenodd" d="M6.25 0H33.75C37.2018 0 40 2.79822 40 6.25V33.75C40 37.2018 37.2018 40 33.75 40H6.25C2.79822 40 0 37.2018 0 33.75V6.25C0 2.79822 2.79822 0 6.25 0ZM19.375 10C21.9688 10 24.0625 12.0937 24.0625 14.6875C24.0625 17.2813 21.9688 19.375 19.375 19.375C16.7812 19.375 14.6875 17.2813 14.6875 14.6875C14.6875 12.0937 16.7812 10 19.375 10ZM10 28.75V26.5625C10 23.4375 16.25 21.7188 19.375 21.7188C22.5 21.7188 28.75 23.4375 28.75 26.5625V28.75H10Z" fill="#EA7818"/>
</svg>
