<svg width="31" height="31" viewBox="0 0 31 31" fill="none" xmlns="http://www.w3.org/2000/svg">
<rect width="31" height="31" rx="8" fill="white"/>
<path fill-rule="evenodd" clip-rule="evenodd" d="M6 6H8.71429H11.4286H14.1429V8.71429V11.4286V14.1429H11.4286H8.71429H6V11.4286V8.71429V6ZM8.71429 11.4286V8.71429H11.4286V11.4286H8.71429ZM19.5714 6H16.8571V8.71429V11.4286V14.1429H19.5714H22.2857H25V11.4286V8.71429V6H22.2857H19.5714ZM19.5714 11.4286V8.71429H22.2857V11.4286H19.5714ZM8.71429 16.8571H6V19.5714V22.2857V25H8.71429H11.4286H14.1429V22.2857V19.5714V16.8571H11.4286H8.71429ZM8.71429 19.5714V22.2857H11.4286V19.5714H8.71429ZM19.5714 22.2857H16.8571V25H19.5714V22.2857ZM19.5714 19.5714H16.8571V16.8571H19.5714V19.5714ZM19.5714 19.5714V22.2857L22.2857 22.2857L22.2857 25H25V22.2857V19.5714H22.2857H19.5714Z" fill="black"/>
</svg>
