<svg width="40" height="40" viewBox="0 0 40 40" fill="none" xmlns="http://www.w3.org/2000/svg">
<path fill-rule="evenodd" clip-rule="evenodd" d="M6.25 0H33.75C37.2018 0 40 2.79822 40 6.25V33.75C40 37.2018 37.2018 40 33.75 40H6.25C2.79822 40 0 37.2018 0 33.75V6.25C0 2.79822 2.79822 0 6.25 0ZM23.5833 25.8415C24.125 25.3401 24.8333 25.0201 25.625 25.0201C27.3021 25.0201 28.6667 26.4175 28.6667 28.135C28.6667 29.8525 27.3021 31.25 25.625 31.25C23.9479 31.25 22.5833 29.8525 22.5833 28.135C22.5833 27.9004 22.6146 27.6657 22.6667 27.4416L15.25 23.0039C14.6875 23.5373 13.9479 23.868 13.125 23.868C11.3958 23.868 10 22.4385 10 20.6677C10 18.8968 11.3958 17.4674 13.125 17.4674C13.9479 17.4674 14.6875 17.7981 15.25 18.3315L22.5938 13.947C22.5417 13.7017 22.5 13.4563 22.5 13.2003C22.5 11.4295 23.8958 10 25.625 10C27.3542 10 28.75 11.4295 28.75 13.2003C28.75 14.9711 27.3542 16.4006 25.625 16.4006C24.8021 16.4006 24.0625 16.0699 23.5 15.5365L16.1562 19.9209C16.2083 20.1663 16.25 20.4116 16.25 20.6677C16.25 20.9237 16.2083 21.1691 16.1562 21.4144L23.5833 25.8415Z" fill="#1877F2"/>
</svg>
