<?xml version="1.0" encoding="UTF-8" standalone="no"?>
<svg
   width="40"
   height="40"
   viewBox="0 0 40 40"
   fill="none"
   version="1.1"
   id="svg6"
   sodipodi:docname="website.svg"
   inkscape:version="1.2 (dc2aeda, 2022-05-15)"
   xml:space="preserve"
   xmlns:inkscape="http://www.inkscape.org/namespaces/inkscape"
   xmlns:sodipodi="http://sodipodi.sourceforge.net/DTD/sodipodi-0.dtd"
   xmlns="http://www.w3.org/2000/svg"
   xmlns:svg="http://www.w3.org/2000/svg"><defs
     id="defs10" /><sodipodi:namedview
     id="namedview8"
     pagecolor="#ffffff"
     bordercolor="#666666"
     borderopacity="1.0"
     inkscape:pageshadow="2"
     inkscape:pageopacity="0.0"
     inkscape:pagecheckerboard="0"
     showgrid="false"
     inkscape:zoom="4.8666344"
     inkscape:cx="12.020628"
     inkscape:cy="32.055007"
     inkscape:window-width="1296"
     inkscape:window-height="792"
     inkscape:window-x="0"
     inkscape:window-y="25"
     inkscape:window-maximized="0"
     inkscape:current-layer="svg6"
     inkscape:showpageshadow="2"
     inkscape:deskcolor="#d1d1d1" /><g
     id="g326"
     transform="translate(50.879346,-1.8051527)"><path
       d="m -17.129346,1.8051524 h -27.5 c -3.45178,0 -6.25,2.79822 -6.25,6.25 V 35.555153 c 0,3.4518 2.79822,6.25 6.25,6.25 h 27.5 c 3.4518,0 6.25,-2.7982 6.25,-6.25 V 8.0551524 c 0,-3.45178 -2.7982,-6.25 -6.25,-6.25 z"
       fill="#1877F2"
       id="path2-2"
       style="fill:#2a7fff" /><path
       style="fill:#ffffff;stroke-width:0.0256092"
       d="m -31.33486,32.405112 c 0,-0.0119 -0.198435,-0.02974 -0.440978,-0.03962 -0.242535,-0.0098 -0.447091,-0.02718 -0.454559,-0.03846 -0.0074,-0.01133 -0.09425,-0.02725 -0.192856,-0.03541 -0.09859,-0.0082 -0.231118,-0.02648 -0.294504,-0.04066 -0.06341,-0.01425 -0.207432,-0.04482 -0.320112,-0.06798 -0.112682,-0.02316 -0.260936,-0.05843 -0.329461,-0.07842 -0.06853,-0.01999 -0.151391,-0.03631 -0.184155,-0.03631 -0.03278,0 -0.06605,-0.0105 -0.07402,-0.02338 -0.0079,-0.01285 -0.06334,-0.03077 -0.123155,-0.03984 -0.05982,-0.0091 -0.131752,-0.02636 -0.159918,-0.03839 -0.02815,-0.01203 -0.13765,-0.04758 -0.243289,-0.07899 -0.105634,-0.0314 -0.228385,-0.07275 -0.272769,-0.09189 -0.0444,-0.01915 -0.09205,-0.03478 -0.105905,-0.03478 -0.0139,0 -0.05823,-0.01722 -0.09858,-0.03824 -0.04032,-0.02103 -0.09352,-0.03831 -0.118169,-0.03839 -0.02461,-7.7e-5 -0.04481,-0.01157 -0.04481,-0.02544 0,-0.01389 -0.04613,-0.03271 -0.102435,-0.0417 -0.05635,-0.009 -0.102434,-0.02551 -0.102434,-0.03665 0,-0.0111 -0.03458,-0.02786 -0.07682,-0.0372 -0.04226,-0.0092 -0.07682,-0.02621 -0.07682,-0.03761 0,-0.01146 -0.04032,-0.02828 -0.08963,-0.03754 -0.0493,-0.0092 -0.08963,-0.0278 -0.08963,-0.04129 0,-0.01341 -0.01438,-0.0244 -0.03202,-0.0244 -0.04059,5e-6 -0.515656,-0.236512 -0.527122,-0.262417 -0.0048,-0.01063 -0.0204,-0.0193 -0.03485,-0.0193 -0.01445,0 -0.121716,-0.0576 -0.23831,-0.128044 -0.11659,-0.07043 -0.224789,-0.128045 -0.240439,-0.128045 -0.01563,0 -0.02849,-0.0089 -0.02849,-0.01971 0,-0.01086 -0.05187,-0.04807 -0.115233,-0.08269 -0.06341,-0.03465 -0.115245,-0.07183 -0.115245,-0.08269 0,-0.01086 -0.01549,-0.01971 -0.03451,-0.01971 -0.01895,0 -0.05878,-0.02019 -0.0884,-0.04481 -0.123404,-0.102576 -0.170872,-0.134448 -0.20029,-0.134448 -0.01708,0 -0.03492,-0.0092 -0.03962,-0.0204 -0.0048,-0.01121 -0.106495,-0.09412 -0.226214,-0.184204 -0.119726,-0.09008 -0.223442,-0.170214 -0.230481,-0.178063 -0.0071,-0.0078 -0.06962,-0.05995 -0.139075,-0.1158 -0.207222,-0.166637 -0.254897,-0.21149 -0.74012,-0.696311 -0.481806,-0.481419 -0.526831,-0.529274 -0.696685,-0.740496 -0.05588,-0.06945 -0.107961,-0.132028 -0.1158,-0.139068 -0.0078,-0.0071 -0.08798,-0.110758 -0.178063,-0.230482 -0.0901,-0.119725 -0.17298,-0.221518 -0.184204,-0.226213 -0.01121,-0.0048 -0.0204,-0.02309 -0.0204,-0.04087 0,-0.01777 -0.02019,-0.05664 -0.04481,-0.08627 -0.103686,-0.124725 -0.134448,-0.171037 -0.134448,-0.202419 0,-0.01825 -0.0089,-0.03319 -0.01971,-0.03319 -0.01086,0 -0.04807,-0.05187 -0.08271,-0.115245 -0.03464,-0.06341 -0.07183,-0.115233 -0.08269,-0.115233 -0.01086,0 -0.01971,-0.0128 -0.01971,-0.02849 0,-0.01564 -0.0576,-0.123855 -0.128045,-0.240441 -0.07043,-0.116591 -0.128043,-0.223835 -0.128043,-0.238308 0,-0.01445 -0.0086,-0.03016 -0.01922,-0.03485 -0.02372,-0.0105 -0.262473,-0.494565 -0.262473,-0.532074 0,-0.01486 -0.01098,-0.02704 -0.02442,-0.02704 -0.01348,0 -0.03202,-0.04032 -0.04129,-0.08963 -0.0092,-0.0493 -0.02614,-0.08963 -0.03754,-0.08963 -0.01146,0 -0.02835,-0.03458 -0.03761,-0.07683 -0.0092,-0.04225 -0.026,-0.07682 -0.0372,-0.07682 -0.0111,0 -0.02767,-0.04613 -0.03665,-0.102434 -0.009,-0.05636 -0.0278,-0.102435 -0.0417,-0.102435 -0.0139,0 -0.02539,-0.02019 -0.02544,-0.04481 -7.5e-5,-0.02461 -0.01736,-0.07783 -0.03846,-0.118169 -0.02103,-0.04032 -0.03824,-0.0847 -0.03824,-0.09856 0,-0.01382 -0.01564,-0.06155 -0.03478,-0.105918 -0.05165,-0.119802 -0.145264,-0.432597 -0.144835,-0.48404 2e-4,-0.02462 -0.0097,-0.04481 -0.02192,-0.04481 -0.01225,0 -0.02987,-0.05712 -0.03914,-0.126993 -0.0092,-0.06985 -0.02801,-0.133909 -0.0417,-0.142367 -0.0137,-0.0083 -0.0249,-0.04219 -0.0249,-0.07494 0,-0.03278 -0.01632,-0.115635 -0.03631,-0.184156 -0.127366,-0.437175 -0.267146,-1.367995 -0.269635,-1.795584 -6.92e-4,-0.139933 -0.0119,-0.236886 -0.02697,-0.236886 -0.01612,0 -0.02558,-0.170726 -0.02558,-0.460969 0,-0.290237 0.0094,-0.460964 0.02558,-0.460964 0.01521,0 0.02607,-0.101053 0.02677,-0.249686 0.0014,-0.233662 0.01321,-0.362584 0.07477,-0.793888 0.05103,-0.357607 0.160594,-0.930682 0.185068,-0.968218 0.0097,-0.01486 0.02566,-0.08718 0.03541,-0.16063 0.0098,-0.07346 0.02738,-0.13953 0.03921,-0.146833 0.01182,-0.0074 0.02905,-0.07043 0.03831,-0.140277 0.0092,-0.06985 0.02587,-0.126994 0.03693,-0.126994 0.0111,0 0.02815,-0.04896 0.03803,-0.108846 0.0099,-0.05988 0.02684,-0.120361 0.03768,-0.134448 0.01086,-0.01411 0.02793,-0.06383 0.03797,-0.110557 0.01004,-0.04675 0.0343,-0.115871 0.05401,-0.153659 0.01971,-0.03776 0.03589,-0.09463 0.03603,-0.126316 7.6e-5,-0.03168 0.01157,-0.0576 0.02544,-0.0576 0.01389,0 0.03271,-0.04613 0.0417,-0.102434 0.009,-0.05635 0.02593,-0.102435 0.03754,-0.102435 0.01169,0 0.02877,-0.04032 0.03797,-0.08963 0.0092,-0.0493 0.02704,-0.08963 0.03955,-0.08963 0.01251,0 0.02316,-0.01438 0.02365,-0.03202 4.76e-4,-0.01764 0.02316,-0.07812 0.05034,-0.134447 0.02725,-0.05636 0.04986,-0.121642 0.05034,-0.145119 4.83e-4,-0.02345 0.0096,-0.04654 0.02006,-0.05124 0.01063,-0.0048 0.07983,-0.129538 0.153915,-0.27743 0.176749,-0.352814 0.270625,-0.523029 0.294248,-0.533525 0.01063,-0.0048 0.01922,-0.02227 0.01922,-0.03899 0,-0.01673 0.04032,-0.0917 0.08963,-0.166564 0.0493,-0.07485 0.08963,-0.146618 0.08963,-0.159475 0,-0.01286 0.01157,-0.02338 0.02558,-0.02338 0.01411,0 0.02558,-0.01549 0.02558,-0.03451 0,-0.01895 0.02019,-0.05879 0.04482,-0.08841 0.09647,-0.116048 0.134448,-0.170125 0.134448,-0.191445 0,-0.01225 0.01438,-0.03831 0.03202,-0.05795 0.05013,-0.05588 0.07988,-0.09465 0.146717,-0.191127 0.03416,-0.0493 0.06881,-0.0954 0.07694,-0.102435 0.0082,-0.0071 0.08851,-0.110757 0.178554,-0.230488 0.09005,-0.119719 0.187648,-0.240724 0.216907,-0.268896 0.02925,-0.02815 0.09927,-0.108527 0.155595,-0.178583 0.108066,-0.134413 0.914721,-0.949242 0.955079,-0.964753 0.02663,-0.01027 0.223359,-0.171826 0.361624,-0.297055 0.05049,-0.04572 0.09958,-0.08317 0.109141,-0.08324 0.0096,-7.7e-5 0.03257,-0.01486 0.05124,-0.03291 0.0766,-0.07428 0.352053,-0.274498 0.377619,-0.274498 0.01515,0 0.02759,-0.0092 0.02759,-0.02047 0,-0.01121 0.04579,-0.04868 0.10175,-0.08323 0.05594,-0.03451 0.102056,-0.07017 0.102435,-0.0792 3.79e-4,-0.0091 0.02953,-0.02365 0.06472,-0.0325 0.03519,-0.0089 0.06404,-0.02739 0.06404,-0.04122 0,-0.01382 0.01098,-0.0251 0.02447,-0.0251 0.01348,0 0.06818,-0.02994 0.121647,-0.06659 0.05346,-0.03665 0.120217,-0.07713 0.14839,-0.09001 0.02815,-0.01285 0.08579,-0.04536 0.128044,-0.07224 0.04226,-0.02684 0.140209,-0.0813 0.217682,-0.121005 0.07746,-0.0397 0.146611,-0.07806 0.153652,-0.08526 0.03125,-0.03188 0.336618,-0.179523 0.371278,-0.179523 0.02116,0 0.03846,-0.01157 0.03846,-0.02558 0,-0.01411 0.01438,-0.026 0.03202,-0.02648 0.01763,-4.78e-4 0.07812,-0.02316 0.134447,-0.05034 0.05636,-0.02718 0.116838,-0.04986 0.134448,-0.05034 0.01764,-4.77e-4 0.03202,-0.01146 0.03202,-0.02447 0,-0.01293 0.03472,-0.03119 0.07708,-0.04052 0.07115,-0.01564 0.182779,-0.06072 0.284691,-0.11508 0.02289,-0.01225 0.08342,-0.03002 0.134448,-0.03962 0.05104,-0.0096 0.09279,-0.02662 0.09279,-0.0379 0,-0.01121 0.04605,-0.02828 0.102305,-0.03783 0.05629,-0.0096 0.107995,-0.02648 0.114962,-0.03776 0.007,-0.01121 0.05456,-0.02835 0.105716,-0.03797 0.05117,-0.0096 0.111809,-0.0274 0.134732,-0.03955 0.02289,-0.01217 0.09352,-0.03507 0.156903,-0.05083 0.06341,-0.01577 0.178623,-0.04579 0.256096,-0.06673 0.319896,-0.0863 0.71311,-0.172192 0.998755,-0.218186 0.07746,-0.01244 0.169662,-0.02849 0.204874,-0.03562 0.0352,-0.0071 0.16198,-0.02026 0.281705,-0.02911 0.119718,-0.009 0.233634,-0.02884 0.253135,-0.04433 0.04959,-0.03935 1.953798,-0.03935 2.003422,-2e-5 0.0195,0.01542 0.141191,0.03527 0.270425,0.04398 0.129227,0.0087 0.284802,0.0269 0.345725,0.04039 0.06092,0.01348 0.237522,0.04896 0.392461,0.07884 0.509612,0.09834 0.661805,0.133509 0.998756,0.230856 0.185607,0.05359 0.56257,0.181299 0.607872,0.205897 0.02447,0.01329 0.05905,0.0242 0.07682,0.02427 0.01777,7.5e-5 0.06327,0.01632 0.101053,0.03604 0.03776,0.01971 0.104052,0.04363 0.147255,0.05311 0.04322,0.0094 0.07855,0.02786 0.07855,0.04081 0,0.01293 0.01791,0.02357 0.03984,0.02357 0.03589,0 0.115316,0.0314 0.360996,0.142704 0.0444,0.02012 0.0924,0.03657 0.106709,0.03657 0.01431,0 0.02987,0.0086 0.03458,0.01922 0.0048,0.01063 0.129539,0.07983 0.27743,0.153915 0.301564,0.151073 0.518596,0.267866 0.537793,0.289407 0.02068,0.02316 0.325201,0.203304 0.343754,0.203304 0.0093,0 0.03084,0.01203 0.04785,0.02677 0.01702,0.01474 0.111596,0.08336 0.210191,0.15247 0.0986,0.06908 0.193187,0.137725 0.2102,0.152463 0.01702,0.01473 0.04239,0.02684 0.05636,0.02684 0.01397,0 0.03464,0.01438 0.04592,0.03202 0.02372,0.03708 0.227591,0.198471 0.250681,0.198471 0.0086,0 0.04093,0.02689 0.07193,0.05982 0.03105,0.03291 0.07533,0.07035 0.09846,0.08324 0.120113,0.06688 1.276013,1.170969 1.276593,1.219356 1.31e-4,0.0098 0.05207,0.07281 0.115457,0.139911 0.06341,0.06707 0.115246,0.130666 0.115246,0.14126 0,0.01063 0.03458,0.05463 0.07682,0.09787 0.04225,0.04322 0.07682,0.08387 0.07682,0.0903 0,0.02088 0.184433,0.255176 0.2078,0.263972 0.01244,0.0048 0.02268,0.02393 0.02268,0.04267 0,0.01881 0.0086,0.03797 0.01922,0.04267 0.01063,0.0048 0.06528,0.07768 0.121641,0.162185 0.05636,0.08451 0.108952,0.159421 0.116922,0.16646 0.0079,0.0071 0.07636,0.11652 0.151979,0.243289 0.07562,0.126766 0.144011,0.236249 0.151977,0.24329 0.01632,0.01445 0.165741,0.294751 0.320782,0.601815 0.05692,0.112682 0.112092,0.208719 0.122652,0.213407 0.01062,0.0048 0.01929,0.022 0.01936,0.03839 7.7e-5,0.01646 0.01632,0.06078 0.03596,0.09857 0.01971,0.03776 0.04364,0.104052 0.05311,0.147255 0.0094,0.04322 0.02732,0.07855 0.03969,0.07855 0.01232,0 0.03002,0.04032 0.03921,0.08963 0.0092,0.0493 0.02614,0.08962 0.03754,0.08962 0.01146,0 0.02849,0.03534 0.03797,0.07855 0.0094,0.04322 0.0334,0.109472 0.05311,0.147255 0.01971,0.03776 0.03589,0.08326 0.03603,0.101053 7.6e-5,0.01777 0.01098,0.05235 0.02427,0.07682 0.04406,0.0812 0.242487,0.708213 0.269325,0.851161 0.0092,0.0493 0.02697,0.112683 0.03935,0.140844 0.01239,0.02815 0.03374,0.114608 0.04758,0.192074 0.01377,0.07746 0.04896,0.250329 0.07812,0.384134 0.02918,0.133812 0.05318,0.280065 0.05339,0.325007 1.8e-4,0.04495 0.01075,0.08816 0.02352,0.09602 0.01273,0.0079 0.03071,0.138189 0.03996,0.289615 0.0092,0.151418 0.0305,0.302898 0.04717,0.336625 0.04412,0.08913 0.04219,1.960375 -0.0022,2.004627 -0.01729,0.01729 -0.03243,0.09541 -0.03361,0.173575 -0.0022,0.135168 -0.01341,0.224673 -0.07332,0.577494 -0.04564,0.268897 -0.147132,0.731216 -0.216409,0.985949 -0.0211,0.07748 -0.05124,0.19271 -0.06702,0.256096 -0.01576,0.06341 -0.03865,0.133984 -0.05083,0.156903 -0.01217,0.02289 -0.02994,0.08354 -0.03955,0.134731 -0.0096,0.05117 -0.0267,0.09876 -0.03797,0.105717 -0.01121,0.007 -0.02828,0.05871 -0.03776,0.114962 -0.0096,0.05629 -0.02648,0.102304 -0.03783,0.102304 -0.01121,0 -0.02786,0.03914 -0.03686,0.08705 -0.01459,0.07791 -0.05622,0.185014 -0.115811,0.297928 -0.01146,0.02157 -0.02884,0.07632 -0.0388,0.121641 -0.0099,0.04529 -0.02871,0.08239 -0.0417,0.08239 -0.013,0 -0.02358,0.01266 -0.02358,0.02815 0,0.04281 -0.297338,0.681258 -0.33278,0.714528 -0.0075,0.0071 -0.04557,0.07619 -0.08462,0.153651 -0.03899,0.07746 -0.09376,0.175422 -0.121593,0.217682 -0.02786,0.04225 -0.05761,0.09699 -0.0661,0.121641 -0.0085,0.02462 -0.02442,0.04482 -0.03534,0.04482 -0.01098,0 -0.02711,0.02883 -0.03589,0.06404 -0.0089,0.03519 -0.02738,0.06404 -0.04122,0.06404 -0.01382,0 -0.0251,0.01646 -0.0251,0.03659 0,0.02012 -0.01515,0.0518 -0.03368,0.07043 -0.01853,0.01861 -0.06418,0.08589 -0.101372,0.14951 -0.0372,0.06363 -0.09121,0.14092 -0.119967,0.171792 -0.02878,0.03084 -0.05228,0.06293 -0.05228,0.07123 0,0.01687 -0.368665,0.507759 -0.432812,0.576304 -0.02253,0.02406 -0.07552,0.08732 -0.117795,0.140555 -0.04226,0.05325 -0.09123,0.111655 -0.108833,0.129816 -0.01764,0.01818 -0.03202,0.03921 -0.03202,0.04675 0,0.02454 -0.828707,0.843956 -0.999267,0.988031 -0.09126,0.07709 -0.171709,0.147027 -0.178756,0.155401 -0.0071,0.0083 -0.09347,0.07639 -0.192067,0.151149 -0.0986,0.07476 -0.183104,0.14599 -0.187799,0.158306 -0.0048,0.01232 -0.02483,0.02241 -0.04481,0.02241 -0.01999,0 -0.0363,0.0087 -0.0363,0.01957 0,0.01075 -0.04613,0.04806 -0.102435,0.08287 -0.05636,0.03478 -0.102435,0.07212 -0.102435,0.08287 0,0.01075 -0.01764,0.01957 -0.03921,0.01957 -0.02157,0 -0.04585,0.01729 -0.05393,0.03846 -0.0082,0.02116 -0.02905,0.03846 -0.04647,0.03846 -0.01749,0 -0.05601,0.02019 -0.08567,0.04481 -0.124725,0.103686 -0.171043,0.134448 -0.202419,0.134448 -0.01825,0 -0.03319,0.01015 -0.03319,0.0226 0,0.01244 -0.02019,0.0296 -0.04481,0.0381 -0.02462,0.0085 -0.07939,0.03851 -0.12164,0.06673 -0.04226,0.02822 -0.105634,0.06557 -0.140852,0.08301 -0.0352,0.0175 -0.06977,0.03776 -0.07682,0.04509 -0.0242,0.02517 -0.11567,0.07533 -0.384133,0.210628 -0.1479,0.07454 -0.274776,0.143272 -0.28196,0.152746 -0.0072,0.0094 -0.0446,0.02517 -0.08324,0.03485 -0.03858,0.0097 -0.07017,0.02739 -0.07017,0.03928 0,0.01189 -0.04032,0.02925 -0.08963,0.03851 -0.0493,0.0092 -0.08963,0.0258 -0.08963,0.03672 0,0.01098 -0.04032,0.02745 -0.08964,0.03672 -0.0493,0.0092 -0.08963,0.02655 -0.08963,0.03844 0,0.0119 -0.04032,0.02919 -0.08963,0.03839 -0.0493,0.0092 -0.08963,0.02779 -0.08963,0.04129 0,0.01341 -0.02593,0.02454 -0.05761,0.02462 -0.03167,7.7e-5 -0.09063,0.01736 -0.13097,0.03838 -0.04032,0.02102 -0.08644,0.03831 -0.102435,0.03844 -0.01598,7.6e-5 -0.06002,0.01632 -0.09778,0.03604 -0.03776,0.01971 -0.106932,0.04405 -0.153658,0.05401 -0.04676,0.01004 -0.09647,0.02704 -0.110558,0.03796 -0.01411,0.01086 -0.07459,0.02781 -0.134449,0.03768 -0.05988,0.0099 -0.108845,0.02697 -0.108845,0.03803 0,0.0111 -0.05588,0.02745 -0.124145,0.03652 -0.06826,0.0091 -0.132435,0.02476 -0.14258,0.03492 -0.01846,0.01846 -0.142436,0.04916 -0.501549,0.124053 -0.105635,0.02207 -0.243925,0.05153 -0.307311,0.06557 -0.06341,0.01404 -0.218962,0.03907 -0.345726,0.0556 -0.126766,0.01653 -0.243282,0.03846 -0.258932,0.04862 -0.01563,0.01016 -0.220635,0.02641 -0.455527,0.03603 -0.234891,0.0096 -0.433085,0.02725 -0.440429,0.03907 -0.0175,0.02828 -0.932258,0.02822 -0.932258,-1.04e-4 z m -0.153652,-3.579384 v -2.141351 l -0.160063,0.01528 c -0.655651,0.06266 -0.829074,0.08232 -0.8515,0.09661 -0.01411,0.009 -0.132207,0.02462 -0.262493,0.03472 -0.130293,0.01015 -0.236885,0.02752 -0.236885,0.03865 0,0.0111 -0.0922,0.02835 -0.204875,0.03838 -0.112683,0.0099 -0.204874,0.02733 -0.204874,0.03846 0,0.01121 -0.08073,0.02842 -0.17937,0.03839 -0.09864,0.0099 -0.18576,0.02835 -0.193574,0.041 -0.0078,0.01266 -0.04717,0.02304 -0.0874,0.02304 -0.04025,0 -0.07796,0.01431 -0.0838,0.03188 -0.01404,0.04219 0.03464,0.198617 0.06189,0.198617 0.0118,0 0.0213,0.01334 0.0213,0.0296 0,0.03009 0.205898,0.446732 0.301737,0.610619 0.02883,0.0493 0.09569,0.173181 0.148584,0.275299 0.05291,0.102116 0.10574,0.185663 0.117429,0.185663 0.01169,0 0.0213,0.01646 0.0213,0.03659 0,0.02012 0.01438,0.05201 0.03202,0.07089 0.01764,0.01888 0.06058,0.08882 0.0955,0.155484 0.03492,0.06666 0.07238,0.121184 0.08323,0.121184 0.01086,0 0.01971,0.01646 0.01971,0.03657 0,0.02012 0.01508,0.0518 0.03347,0.07043 0.01839,0.0186 0.0419,0.0511 0.05221,0.07226 0.04018,0.08216 0.5061,0.792258 0.566546,0.863423 0.05996,0.07062 0.08205,0.101431 0.138169,0.192958 0.03244,0.05284 0.06949,0.09604 0.08242,0.09604 0.01293,0 0.02351,0.01549 0.02351,0.03444 0,0.01895 0.02304,0.05533 0.05124,0.08079 0.02815,0.02551 0.05124,0.06085 0.05124,0.07867 0,0.01777 0.0094,0.03616 0.02081,0.04086 0.01145,0.0048 0.116355,0.135306 0.233116,0.290237 0.185125,0.245661 0.272404,0.345725 0.301545,0.345725 0.0041,0 0.0079,-0.963604 0.0079,-2.14135 z m 1.332083,2.096534 c 2.35e-4,-0.01063 0.03609,-0.05954 0.07973,-0.108834 0.04364,-0.0493 0.114667,-0.141496 0.157883,-0.204875 0.04322,-0.06334 0.09377,-0.124463 0.112352,-0.13572 0.01861,-0.01121 0.03375,-0.0372 0.03375,-0.05761 0,-0.0204 0.0086,-0.0372 0.01922,-0.03734 0.01062,-1.04e-4 0.04799,-0.04329 0.0832,-0.09604 0.03519,-0.05269 0.07552,-0.108845 0.08963,-0.124732 0.01411,-0.01591 0.04294,-0.05442 0.06404,-0.08563 0.03388,-0.05007 0.0787,-0.108374 0.148169,-0.192814 0.01157,-0.01411 0.157428,-0.233048 0.324095,-0.486578 0.166666,-0.25353 0.324502,-0.492186 0.350739,-0.530352 0.02621,-0.03817 0.04771,-0.08138 0.04771,-0.09603 0,-0.01467 0.01157,-0.02663 0.02558,-0.02663 0.01411,0 0.02558,-0.01273 0.02558,-0.02835 0,-0.01556 0.07681,-0.155811 0.170698,-0.311635 0.179101,-0.297256 0.274104,-0.468763 0.435875,-0.786848 0.05373,-0.105634 0.106318,-0.195912 0.116886,-0.200607 0.01063,-0.0048 0.01922,-0.02212 0.01922,-0.0388 0,-0.01667 0.02241,-0.07209 0.04979,-0.123225 0.0274,-0.0511 0.05332,-0.125865 0.05761,-0.166078 0.0075,-0.07078 0.0027,-0.07394 -0.145865,-0.09873 -0.08451,-0.01411 -0.165181,-0.03291 -0.179268,-0.0419 -0.01411,-0.009 -0.10051,-0.02399 -0.192066,-0.0334 -0.09155,-0.0094 -0.189509,-0.02759 -0.217682,-0.04032 -0.02815,-0.01273 -0.154931,-0.03555 -0.281697,-0.05068 -1.068759,-0.127498 -1.441439,-0.152414 -1.475524,-0.09862 -0.02544,0.04018 -0.03091,4.179091 -0.0056,4.204469 0.02323,0.02323 0.08527,0.02165 0.08578,-0.0022 z m -3.047899,-0.104926 c 0,-0.01189 -0.02282,-0.04937 -0.05076,-0.08323 -0.07267,-0.08814 -0.08297,-0.102069 -0.154129,-0.208623 -0.03519,-0.05269 -0.07267,-0.09594 -0.08324,-0.09603 -0.01062,-1.05e-4 -0.01922,-0.01121 -0.01922,-0.02469 0,-0.01348 -0.08644,-0.153023 -0.192074,-0.310049 -0.105635,-0.157028 -0.192067,-0.294117 -0.192067,-0.304636 0,-0.0105 -0.02883,-0.0502 -0.06404,-0.08821 -0.03519,-0.03797 -0.06404,-0.07562 -0.06404,-0.08361 0,-0.02544 -0.188519,-0.328195 -0.209922,-0.337081 -0.01134,-0.0048 -0.02054,-0.02406 -0.02054,-0.04301 0,-0.01895 -0.01438,-0.04986 -0.03202,-0.06874 -0.01763,-0.01887 -0.06078,-0.09171 -0.09604,-0.161888 -0.03519,-0.07018 -0.07002,-0.133356 -0.07734,-0.140396 -0.0074,-0.0071 -0.02711,-0.04163 -0.04398,-0.07682 -0.01687,-0.0352 -0.0646,-0.121641 -0.106154,-0.192068 -0.100675,-0.170691 -0.335955,-0.643362 -0.335955,-0.674924 0,-0.01377 -0.0086,-0.0289 -0.01922,-0.03361 -0.02442,-0.01086 -0.134448,-0.234956 -0.134448,-0.273834 0,-0.01605 -0.01015,-0.02919 -0.02241,-0.02919 -0.01232,0 -0.02953,-0.03548 -0.03817,-0.07891 -0.01473,-0.07369 -0.02123,-0.07771 -0.0984,-0.06078 -0.04543,0.0099 -0.100274,0.02704 -0.121862,0.0379 -0.02157,0.01086 -0.09111,0.03935 -0.154497,0.06341 -0.06341,0.02399 -0.132905,0.05255 -0.154495,0.06341 -0.02157,0.01086 -0.07633,0.02786 -0.121648,0.03783 -0.04529,0.0099 -0.08239,0.02725 -0.08239,0.03838 0,0.01121 -0.04613,0.02767 -0.102434,0.03665 -0.05636,0.009 -0.102435,0.02648 -0.102435,0.03887 0,0.01237 -0.04032,0.03001 -0.08963,0.03928 -0.0493,0.0092 -0.08963,0.02781 -0.08963,0.04129 0,0.01341 -0.02019,0.02483 -0.04481,0.02531 -0.02461,4.77e-4 -0.09091,0.02316 -0.147256,0.05034 -0.05635,0.02718 -0.116839,0.04986 -0.134447,0.05034 -0.01764,4.77e-4 -0.03202,0.0111 -0.03202,0.02372 0,0.01259 -0.03167,0.03057 -0.07042,0.04011 -0.129878,0.03181 -0.749071,0.34758 -0.749071,0.382011 0,0.0437 0.619512,0.630666 0.665638,0.630666 0.01183,0 0.02539,0.0098 0.03009,0.02185 0.01203,0.03084 0.451145,0.362274 0.479939,0.362274 0.01307,0 0.02752,0.0086 0.03222,0.01922 0.01121,0.02524 0.284829,0.211271 0.310748,0.211271 0.01902,0 0.0511,0.02331 0.132208,0.09604 0.01964,0.01764 0.04723,0.03202 0.06133,0.03202 0.01411,0 0.04087,0.01438 0.05954,0.03202 0.04281,0.0404 0.21654,0.141765 0.30904,0.180333 0.03873,0.01618 0.07043,0.03749 0.07043,0.04729 0,0.0099 0.03458,0.02558 0.07682,0.03485 0.04226,0.0092 0.07682,0.02655 0.07682,0.03839 0,0.01183 0.03458,0.02912 0.07682,0.03846 0.04226,0.0092 0.07682,0.02655 0.07682,0.03846 0,0.01183 0.03457,0.02912 0.07682,0.03839 0.04226,0.0092 0.07682,0.02655 0.07682,0.03846 0,0.01182 0.03458,0.02912 0.07682,0.03839 0.04226,0.0092 0.07682,0.02738 0.07682,0.04018 0,0.0128 0.04613,0.03064 0.102435,0.03962 0.05636,0.009 0.102435,0.02643 0.102435,0.03873 0,0.01232 0.01438,0.02275 0.03202,0.02323 0.01764,4.85e-4 0.07812,0.02316 0.134449,0.05034 0.05636,0.02725 0.128361,0.04986 0.160055,0.05034 0.03168,4.78e-4 0.05761,0.01237 0.05761,0.02648 0,0.01411 0.01847,0.02558 0.04093,0.02558 0.02255,0 0.07726,0.01619 0.121648,0.03603 0.0444,0.01984 0.149842,0.05553 0.234347,0.07939 0.08451,0.02386 0.176707,0.05291 0.204873,0.06452 0.0937,0.03873 0.127381,0.04647 0.211279,0.04855 0.04579,0.0014 0.08324,-0.0078 0.08324,-0.01964 z m 4.955377,-0.01971 c 0.07043,-0.02289 0.147705,-0.05153 0.171742,-0.06368 0.02399,-0.0121 0.0903,-0.02946 0.147249,-0.03858 0.05698,-0.0091 0.103555,-0.02648 0.103555,-0.03858 0,-0.0121 0.04613,-0.02939 0.102435,-0.03846 0.05636,-0.009 0.102435,-0.02641 0.102435,-0.03873 0,-0.01232 0.02019,-0.02241 0.04481,-0.02248 0.02461,-7.8e-5 0.07573,-0.01632 0.113521,-0.03603 0.03776,-0.01971 0.104052,-0.04364 0.147248,-0.05311 0.04322,-0.0094 0.07856,-0.02786 0.07856,-0.04081 0,-0.01293 0.01895,-0.02357 0.04212,-0.02357 0.08759,0 0.813037,-0.363713 1.079554,-0.541258 0.06058,-0.04032 0.121067,-0.07337 0.134448,-0.07337 0.01334,0 0.02435,-0.01157 0.02435,-0.02558 0,-0.01411 0.01431,-0.02559 0.03181,-0.02559 0.03429,0 0.308383,-0.179577 0.32247,-0.21127 0.0048,-0.01063 0.02524,-0.01922 0.04564,-0.01922 0.0204,0 0.0437,-0.01729 0.0518,-0.03846 0.0082,-0.02109 0.02905,-0.03839 0.04647,-0.03839 0.0175,0 0.05948,-0.02413 0.0933,-0.05366 0.03381,-0.02953 0.13357,-0.106637 0.221602,-0.171404 0.08802,-0.06479 0.160057,-0.127056 0.160057,-0.138424 0,-0.01133 0.01307,-0.02068 0.02905,-0.02068 0.01598,0 0.05347,-0.02592 0.08324,-0.05767 0.0298,-0.03175 0.111077,-0.103733 0.180664,-0.160056 0.202751,-0.164108 0.449719,-0.411796 0.4494,-0.450701 -1.52e-4,-0.01971 -0.04916,-0.05871 -0.108833,-0.08667 -0.05968,-0.02793 -0.114313,-0.05677 -0.12135,-0.06404 -0.02379,-0.02462 -0.248683,-0.128404 -0.278108,-0.128404 -0.01605,0 -0.02919,-0.01157 -0.02919,-0.02558 0,-0.01411 -0.01244,-0.02558 -0.02759,-0.02558 -0.01522,0 -0.116024,-0.04129 -0.224079,-0.09168 -0.108054,-0.05042 -0.219519,-0.101655 -0.247686,-0.11384 -0.02815,-0.01217 -0.105328,-0.04585 -0.171459,-0.07478 -0.06611,-0.02898 -0.138162,-0.05262 -0.160056,-0.05262 -0.02192,0 -0.03984,-0.01157 -0.03984,-0.02558 0,-0.01411 -0.01266,-0.02558 -0.02815,-0.02558 -0.01549,0 -0.06445,-0.0157 -0.108846,-0.03492 -0.0444,-0.01922 -0.132553,-0.05497 -0.195939,-0.07946 -0.06334,-0.02449 -0.132905,-0.05339 -0.154495,-0.06424 -0.02158,-0.01086 -0.07883,-0.02842 -0.127201,-0.03907 -0.04833,-0.01063 -0.106969,-0.03119 -0.130216,-0.04571 -0.06133,-0.03831 -0.116626,-0.0077 -0.160506,0.08898 -0.105433,0.23219 -0.144635,0.327656 -0.144635,0.352268 0,0.01487 -0.01063,0.02704 -0.02357,0.02704 -0.013,0 -0.03119,0.03458 -0.04045,0.07682 -0.0092,0.04226 -0.02621,0.07682 -0.03769,0.07682 -0.01145,0 -0.0287,0.0316 -0.03838,0.07017 -0.0097,0.03858 -0.02539,0.07606 -0.03478,0.08325 -0.0094,0.0072 -0.03507,0.04765 -0.05691,0.08988 -0.129821,0.250821 -0.218497,0.411374 -0.233517,0.422792 -0.0094,0.0072 -0.0251,0.04467 -0.03478,0.08324 -0.0097,0.03858 -0.02524,0.07017 -0.03458,0.07017 -0.0093,0 -0.0455,0.05456 -0.08045,0.121184 -0.03492,0.06666 -0.0779,0.136627 -0.0955,0.155485 -0.01764,0.01887 -0.03202,0.05076 -0.03202,0.07089 0,0.02013 -0.01157,0.03659 -0.02558,0.03659 -0.01411,0 -0.02558,0.01467 -0.02558,0.03257 0,0.01791 -0.04032,0.09384 -0.08963,0.168693 -0.0493,0.07485 -0.08963,0.14662 -0.08963,0.159475 0,0.01285 -0.01121,0.02338 -0.0251,0.02338 -0.01382,0 -0.03237,0.02883 -0.04122,0.06404 -0.0089,0.03519 -0.02636,0.06404 -0.03894,0.06404 -0.01258,0 -0.02282,0.01273 -0.02282,0.02835 0,0.01556 -0.03458,0.07197 -0.07682,0.125327 -0.04225,0.05339 -0.07682,0.108787 -0.07682,0.123197 0,0.01438 -0.0091,0.03002 -0.02033,0.03471 -0.01121,0.0048 -0.108551,0.141497 -0.216347,0.303993 -0.107806,0.162504 -0.219644,0.322725 -0.248544,0.356043 -0.112422,0.129622 -0.03984,0.163176 0.190739,0.0882 z m -9.579268,-3.608057 c 0.266835,-0.133737 0.500201,-0.243159 0.518589,-0.243159 0.01839,0 0.03347,-0.01027 0.03347,-0.02275 0,-0.01251 0.04032,-0.03028 0.08963,-0.03955 0.0493,-0.0092 0.08963,-0.02689 0.08963,-0.03921 0,-0.01231 0.03533,-0.03016 0.07855,-0.03969 0.04322,-0.0094 0.109472,-0.0334 0.147256,-0.05311 0.03776,-0.01971 0.0831,-0.03589 0.100711,-0.03604 0.01763,-7.6e-5 0.03202,-0.01169 0.03202,-0.0258 0,-0.01411 0.02019,-0.02566 0.04482,-0.0258 0.02462,-7.5e-5 0.07573,-0.01632 0.113509,-0.03604 0.03776,-0.01971 0.104052,-0.04364 0.147255,-0.05311 0.04322,-0.0094 0.07855,-0.02655 0.07855,-0.03797 0,-0.01146 0.04322,-0.02883 0.09598,-0.03873 0.05277,-0.0099 0.101761,-0.02593 0.108845,-0.0356 0.0071,-0.0097 0.113698,-0.05 0.236941,-0.08958 0.191915,-0.06162 0.224078,-0.08003 0.224078,-0.128231 0,-0.05657 -0.135306,-0.479199 -0.178326,-0.556982 -0.01266,-0.02289 -0.03112,-0.0863 -0.04093,-0.140853 -0.0098,-0.05456 -0.02663,-0.11071 -0.03727,-0.124793 -0.01063,-0.01411 -0.02774,-0.07748 -0.03797,-0.140852 -0.01027,-0.06341 -0.02725,-0.126767 -0.03783,-0.140853 -0.01063,-0.01411 -0.02704,-0.0769 -0.03665,-0.139579 -0.0096,-0.06265 -0.02689,-0.126067 -0.03851,-0.140852 -0.01157,-0.01479 -0.0289,-0.08839 -0.03846,-0.163562 -0.0096,-0.07517 -0.02808,-0.155844 -0.04115,-0.179266 -0.01307,-0.02345 -0.03623,-0.117488 -0.05153,-0.209037 -0.01528,-0.09155 -0.04308,-0.258655 -0.06174,-0.371333 -0.01867,-0.112683 -0.03679,-0.204874 -0.04032,-0.204874 -0.01086,0 -0.07627,-0.544826 -0.109153,-0.909127 -0.01715,-0.190151 -0.04052,-0.36013 -0.05194,-0.377737 -0.01625,-0.0251 -0.41701,-0.03202 -1.861564,-0.03202 -1.012462,0 -1.846508,0.0092 -1.853443,0.0204 -0.007,0.01121 -0.0014,0.123578 0.0128,0.249693 0.01397,0.126109 0.03507,0.318147 0.04688,0.42676 0.01183,0.108609 0.03381,0.252659 0.04896,0.320111 0.01508,0.0675 0.03838,0.180269 0.0518,0.250696 0.04294,0.225681 0.100097,0.456543 0.154606,0.624358 0.02918,0.08986 0.05303,0.18426 0.05303,0.209763 0,0.02551 0.01027,0.05269 0.02268,0.06043 0.01251,0.0078 0.03084,0.05739 0.04074,0.110358 0.0099,0.05296 0.02697,0.107842 0.03797,0.121923 0.01098,0.01411 0.02774,0.06881 0.03727,0.121641 0.0096,0.05284 0.02828,0.09604 0.04178,0.09604 0.01341,0 0.02442,0.02365 0.02442,0.05262 0,0.04578 0.02483,0.112564 0.128051,0.344321 0.09598,0.215483 0.128045,0.295307 0.128045,0.318708 0,0.01487 0.01063,0.02704 0.02357,0.02704 0.013,0 0.03119,0.03458 0.04045,0.07682 0.0092,0.04225 0.02621,0.07682 0.03769,0.07682 0.01145,0 0.02871,0.0316 0.03846,0.07017 0.0097,0.03858 0.02531,0.07604 0.03478,0.08324 0.0094,0.0072 0.05332,0.0822 0.09744,0.166715 0.140408,0.268786 0.175062,0.329744 0.207834,0.365594 0.01764,0.01922 0.03202,0.05146 0.03202,0.07159 0,0.02012 0.01157,0.03659 0.02558,0.03659 0.01411,0 0.02558,0.01764 0.02558,0.03921 0,0.02157 0.01729,0.04585 0.03838,0.05393 0.02116,0.0082 0.03846,0.0278 0.03846,0.04378 0,0.03229 0.181038,0.306288 0.21127,0.319731 0.01063,0.0048 0.01922,0.01978 0.01922,0.03354 0,0.02884 0.154787,0.226914 0.177151,0.226715 0.0083,-7.8e-5 0.233235,-0.109555 0.500062,-0.24329 z m 14.483423,0.179397 c 0,-0.02116 0.0086,-0.03851 0.01922,-0.03858 0.01063,-1.03e-4 0.04792,-0.04328 0.08301,-0.09604 0.03507,-0.05269 0.07028,-0.10162 0.07817,-0.108668 0.0079,-0.0071 0.04197,-0.05892 0.0757,-0.115233 0.03375,-0.05636 0.0677,-0.108196 0.07548,-0.115245 0.0078,-0.0071 0.02774,-0.03589 0.04433,-0.06404 0.0166,-0.02815 0.08626,-0.143412 0.154792,-0.25609 0.06853,-0.112682 0.147131,-0.250972 0.174676,-0.307312 0.02752,-0.05636 0.05588,-0.108196 0.06293,-0.115244 0.02462,-0.02462 0.128023,-0.249153 0.128023,-0.278102 0,-0.01605 0.01063,-0.02918 0.02358,-0.02918 0.01293,0 0.03119,-0.03458 0.04045,-0.07682 0.0092,-0.04225 0.02655,-0.07682 0.03846,-0.07682 0.01183,0 0.02912,-0.03444 0.03839,-0.07653 0.0092,-0.04212 0.02745,-0.0831 0.04045,-0.09115 0.013,-0.008 0.02365,-0.03188 0.02365,-0.05291 0,-0.03596 0.07618,-0.227869 0.127192,-0.320451 0.01266,-0.02289 0.03078,-0.08341 0.0404,-0.134448 0.0096,-0.05104 0.02766,-0.09279 0.04018,-0.09279 0.01251,0 0.02275,-0.0242 0.02275,-0.05373 0,-0.02953 0.01624,-0.09006 0.03611,-0.134447 0.04654,-0.104041 0.163133,-0.489712 0.183099,-0.605688 0.0085,-0.0493 0.02585,-0.112683 0.03858,-0.140845 0.02338,-0.05165 0.0565,-0.218919 0.103994,-0.524992 0.01418,-0.09155 0.03652,-0.20679 0.04959,-0.256089 0.02905,-0.109578 0.07801,-0.742978 0.05968,-0.772583 -0.022,-0.03561 -3.665791,-0.02689 -3.687858,0.0089 -0.01027,0.0166 -0.02787,0.14045 -0.03914,0.275293 -0.03948,0.471495 -0.07619,0.808888 -0.09216,0.846991 -0.0089,0.02109 -0.03057,0.130603 -0.04826,0.243289 -0.0177,0.112682 -0.04495,0.28554 -0.06058,0.384134 -0.01563,0.0986 -0.03831,0.197578 -0.05042,0.219957 -0.0121,0.02241 -0.03015,0.105941 -0.04011,0.18567 -0.0099,0.07973 -0.02718,0.144973 -0.03824,0.144973 -0.0111,0 -0.02815,0.06916 -0.03797,0.1537 -0.0098,0.08454 -0.02718,0.159454 -0.03851,0.166488 -0.01146,0.0071 -0.02863,0.0704 -0.03831,0.140803 -0.0097,0.07042 -0.02697,0.128016 -0.03839,0.128016 -0.01145,0 -0.0287,0.0576 -0.03838,0.128017 -0.0097,0.07042 -0.02739,0.134062 -0.03935,0.141453 -0.01196,0.0074 -0.02946,0.06501 -0.03894,0.128073 -0.0094,0.06307 -0.02738,0.114643 -0.03989,0.114643 -0.01251,0 -0.02275,0.02593 -0.02289,0.05761 -7.6e-5,0.03167 -0.01694,0.0898 -0.03749,0.129129 -0.02054,0.03935 -0.04412,0.10848 -0.0525,0.153653 -0.01336,0.07219 -0.0063,0.08596 0.05685,0.113557 0.03962,0.01729 0.109435,0.03887 0.155111,0.04799 0.04564,0.0091 0.08304,0.02539 0.08304,0.03616 0,0.01075 0.04177,0.02738 0.09277,0.03693 0.05104,0.0096 0.111527,0.02738 0.134449,0.03962 0.08948,0.04771 0.217114,0.102328 0.239071,0.102328 0.01273,0 0.07143,0.02178 0.130513,0.04841 0.05913,0.02662 0.167939,0.06966 0.241885,0.09565 0.07395,0.026 0.134448,0.05512 0.134448,0.0648 0,0.0097 0.03458,0.02517 0.07683,0.03444 0.04226,0.0092 0.07682,0.02745 0.07682,0.04045 0,0.013 0.01839,0.02358 0.04087,0.02358 0.02248,0 0.07145,0.01646 0.108833,0.03658 0.03742,0.02013 0.183222,0.09149 0.324067,0.158618 0.140852,0.06715 0.261974,0.130444 0.269153,0.140679 0.0072,0.01027 0.0446,0.02655 0.08324,0.03623 0.03858,0.0097 0.07017,0.02662 0.07017,0.03768 0,0.0111 0.03022,0.02767 0.06708,0.03693 0.03693,0.0092 0.08384,0.03354 0.104265,0.054 0.0502,0.0502 0.187142,0.04923 0.187142,-0.0014 z m -10.896709,-1.498514 c 0.01411,-0.0111 0.103403,-0.02842 0.198477,-0.03853 0.09507,-0.01016 0.172857,-0.02731 0.172857,-0.03831 0,-0.01098 0.08073,-0.02815 0.17937,-0.03803 0.09864,-0.0099 0.185124,-0.02731 0.192164,-0.03873 0.0071,-0.01145 0.110876,-0.0289 0.230757,-0.03887 0.119885,-0.0099 0.223463,-0.02704 0.230185,-0.03797 0.007,-0.01086 0.130436,-0.02808 0.274919,-0.03817 0.144483,-0.01015 0.274222,-0.02718 0.288308,-0.0379 0.01411,-0.01075 0.181182,-0.02697 0.371333,-0.03609 0.190151,-0.0091 0.406228,-0.02345 0.480175,-0.03188 l 0.134448,-0.01529 v -1.533597 -1.533596 h -1.885581 -1.885573 l 0.01564,0.121641 c 0.0086,0.06695 0.0233,0.234002 0.03271,0.371334 0.0094,0.137331 0.02524,0.249692 0.03519,0.249692 0.0099,0 0.02614,0.106142 0.03596,0.235855 0.0098,0.129725 0.02745,0.247846 0.03921,0.262493 0.01183,0.01467 0.02974,0.101549 0.03996,0.193097 0.01016,0.09155 0.02731,0.177987 0.0381,0.192067 0.01075,0.01411 0.02759,0.0917 0.03734,0.172462 0.0098,0.08077 0.02697,0.152531 0.03817,0.159482 0.01121,0.007 0.02828,0.08204 0.0379,0.166867 0.0096,0.08482 0.02731,0.154225 0.03935,0.154225 0.01203,0 0.02987,0.05761 0.03955,0.128018 0.0097,0.07042 0.0267,0.133652 0.0379,0.140534 0.0111,0.007 0.02801,0.06424 0.03749,0.127476 0.0094,0.06322 0.02745,0.121262 0.03991,0.128959 0.01244,0.0077 0.03036,0.06556 0.03984,0.128645 0.0094,0.06307 0.02607,0.114643 0.037,0.114643 0.01086,0 0.02759,0.05187 0.03706,0.115244 0.0094,0.06341 0.02573,0.115233 0.03604,0.115233 0.01027,0 0.03285,0.05284 0.05013,0.117417 l 0.0314,0.117406 0.108362,-0.01784 c 0.05961,-0.0098 0.119885,-0.02696 0.133964,-0.03804 z m 7.039613,-0.06114 c 0.02275,-0.04792 0.04135,-0.104843 0.04135,-0.126537 0,-0.02171 0.01051,-0.04592 0.02338,-0.05387 0.01287,-0.0079 0.03119,-0.06044 0.04066,-0.116615 0.0094,-0.05622 0.02781,-0.10868 0.04066,-0.116626 0.01286,-0.0079 0.02338,-0.03713 0.02338,-0.06479 0,-0.02767 0.02303,-0.115918 0.05124,-0.196071 0.02815,-0.08014 0.05124,-0.172054 0.05124,-0.204238 0,-0.03216 0.01075,-0.05851 0.02379,-0.05851 0.01307,0 0.03167,-0.06341 0.04136,-0.140845 0.0097,-0.07748 0.02662,-0.140852 0.03776,-0.140852 0.0111,0 0.02815,-0.06915 0.03797,-0.153659 0.0098,-0.0845 0.02704,-0.153652 0.03831,-0.153652 0.01121,0 0.02863,-0.08072 0.03851,-0.17937 0.0099,-0.09865 0.02718,-0.185034 0.03838,-0.191963 0.01121,-0.007 0.02793,-0.0962 0.0372,-0.198374 0.0092,-0.102162 0.02636,-0.208815 0.03797,-0.236983 0.0444,-0.107416 0.140651,-0.998126 0.1128,-1.043573 -0.0063,-0.01063 -0.844288,-0.01922 -1.861806,-0.01922 -1.404769,0 -1.857423,0.0074 -1.880763,0.03071 -0.02316,0.02316 -0.03071,0.395412 -0.03071,1.518154 v 1.487422 l 0.108845,0.02967 c 0.05989,0.01632 0.29885,0.03713 0.531096,0.04626 0.232238,0.0091 0.433911,0.02427 0.448156,0.03354 0.01424,0.0093 0.146909,0.03105 0.2948,0.04833 0.547137,0.0639 0.742668,0.09332 0.742668,0.111774 0,0.01039 0.08643,0.02704 0.192074,0.03693 0.105634,0.0099 0.192067,0.02725 0.192067,0.03858 0,0.01121 0.07491,0.02856 0.166459,0.03839 0.09155,0.0098 0.166459,0.02801 0.166459,0.04045 0,0.01244 0.03899,0.02261 0.08671,0.02261 0.07345,0 0.09304,-0.01334 0.128052,-0.08711 z m -9.296215,-4.836265 c 0.04232,-0.525311 0.09365,-1.025891 0.129269,-1.261249 0.0213,-0.140851 0.05346,-0.354052 0.07149,-0.47377 0.01798,-0.119726 0.04025,-0.229203 0.04937,-0.24329 0.0091,-0.01411 0.02497,-0.09475 0.03519,-0.179266 0.01016,-0.0845 0.02752,-0.16518 0.03851,-0.179259 0.01098,-0.01411 0.02822,-0.09188 0.03817,-0.172864 0.01004,-0.081 0.02711,-0.147254 0.0379,-0.147254 0.01086,0 0.02759,-0.0632 0.03727,-0.140444 0.0097,-0.07726 0.02793,-0.146868 0.04059,-0.15471 0.01266,-0.0078 0.03064,-0.07141 0.03991,-0.141254 0.0092,-0.06985 0.02539,-0.126993 0.03589,-0.126993 0.01039,0 0.02677,-0.04841 0.03623,-0.107571 0.0094,-0.05913 0.02774,-0.120236 0.04059,-0.13572 0.01285,-0.01549 0.0305,-0.07367 0.03928,-0.129316 0.01784,-0.113675 0.02123,-0.111149 -0.305278,-0.229183 -0.08609,-0.03112 -0.188983,-0.0698 -0.228635,-0.08593 -0.03962,-0.01612 -0.08862,-0.02932 -0.108845,-0.02932 -0.02019,0 -0.03672,-0.01146 -0.03672,-0.02532 0,-0.01389 -0.04613,-0.03271 -0.102435,-0.0417 -0.05636,-0.009 -0.102434,-0.02641 -0.102434,-0.03873 0,-0.01232 -0.01438,-0.02275 -0.03202,-0.02323 -0.01764,-4.85e-4 -0.07812,-0.02316 -0.134448,-0.05034 -0.05636,-0.02718 -0.121924,-0.04986 -0.14574,-0.05034 -0.02379,-4.85e-4 -0.04986,-0.01146 -0.05795,-0.02449 -0.008,-0.013 -0.04903,-0.03119 -0.09115,-0.04045 -0.04212,-0.0092 -0.07653,-0.02648 -0.07653,-0.03839 0,-0.01183 -0.03458,-0.02912 -0.07682,-0.03838 -0.04226,-0.0092 -0.07682,-0.02745 -0.07682,-0.04045 0,-0.01293 -0.01183,-0.02357 -0.02628,-0.02357 -0.01445,0 -0.135769,-0.05187 -0.269615,-0.115245 -0.133841,-0.06341 -0.253586,-0.115244 -0.266104,-0.115244 -0.01251,0 -0.02662,-0.0086 -0.03132,-0.01922 -0.0048,-0.01063 -0.08272,-0.05739 -0.173402,-0.104052 l -0.16487,-0.08484 -0.06598,0.07204 c -0.0841,0.09187 -0.33417,0.462554 -0.33417,0.49536 0,0.0137 -0.01133,0.02483 -0.0251,0.02483 -0.01382,0 -0.03237,0.02883 -0.04122,0.06404 -0.0089,0.03519 -0.02634,0.06404 -0.03894,0.06404 -0.01259,0 -0.02282,0.0105 -0.02282,0.02338 0,0.01285 -0.04059,0.08488 -0.0902,0.160055 -0.12478,0.189094 -0.524418,1.003638 -0.524418,1.068885 0,0.01549 -0.01063,0.02815 -0.02358,0.02815 -0.01293,0 -0.03133,0.03533 -0.04081,0.07855 -0.0094,0.04322 -0.0334,0.109471 -0.05311,0.147254 -0.01971,0.03776 -0.03589,0.08887 -0.03603,0.11351 -7.6e-5,0.02461 -0.01098,0.04481 -0.0242,0.04481 -0.01321,0 -0.03181,0.05187 -0.04129,0.115245 -0.0096,0.06334 -0.02558,0.115233 -0.03568,0.115233 -0.01016,0 -0.03098,0.04896 -0.04633,0.108845 -0.07642,0.297658 -0.089,0.343063 -0.10809,0.390544 -0.03029,0.07525 -0.09619,0.331225 -0.141806,0.550593 -0.022,0.105634 -0.05124,0.243932 -0.06501,0.307311 -0.02365,0.108823 -0.04052,0.239113 -0.100392,0.777991 -0.0139,0.125064 -0.01909,0.237417 -0.01146,0.249685 0.0075,0.01232 0.836191,0.02234 1.852525,0.02234 h 1.838742 z m 5.009595,-1.310956 c 0,-0.837235 -0.0089,-1.527698 -0.01964,-1.534364 -0.01075,-0.007 -0.198062,-0.02033 -0.416151,-0.03043 -0.218089,-0.01004 -0.408048,-0.02544 -0.422135,-0.03422 -0.01411,-0.0087 -0.152372,-0.02994 -0.307311,-0.0471 -0.583537,-0.0646 -0.781081,-0.0928 -0.781081,-0.111573 0,-0.01063 -0.08642,-0.02745 -0.192067,-0.03734 -0.105634,-0.0099 -0.192067,-0.0267 -0.192067,-0.03727 0,-0.01063 -0.08066,-0.02725 -0.179266,-0.03693 -0.0986,-0.0097 -0.179259,-0.02739 -0.179259,-0.03921 0,-0.01183 -0.06916,-0.0296 -0.153708,-0.03943 -0.08454,-0.0098 -0.160118,-0.02822 -0.167967,-0.04094 -0.0078,-0.01273 -0.04792,-0.02309 -0.0891,-0.02309 -0.06051,0 -0.07805,0.01348 -0.09166,0.07043 -0.0092,0.03873 -0.02573,0.08195 -0.03657,0.09604 -0.01086,0.01411 -0.02808,0.0717 -0.03824,0.128044 -0.01016,0.05636 -0.02711,0.11397 -0.03776,0.128052 -0.01833,0.02435 -0.04219,0.113403 -0.110946,0.41441 -0.01667,0.07298 -0.03839,0.140775 -0.04821,0.150636 -0.0099,0.0099 -0.02558,0.08554 -0.03492,0.168188 -0.0093,0.08266 -0.02587,0.150278 -0.03672,0.150278 -0.01086,0 -0.02801,0.08355 -0.03817,0.18567 -0.01015,0.102116 -0.02684,0.191431 -0.03713,0.198471 -0.01027,0.0071 -0.03125,0.116519 -0.04675,0.243288 -0.01549,0.126765 -0.0464,0.357247 -0.06867,0.512186 -0.02234,0.154931 -0.04751,0.463203 -0.05601,0.68504 l -0.01542,0.403345 h 1.898457 1.898456 z m 5.035269,1.455113 c 0.01687,-0.06722 -1.04e-4,-0.380482 -0.04143,-0.765176 -0.05352,-0.49825 -0.08719,-0.743587 -0.103651,-0.755474 -0.0098,-0.0071 -0.026,-0.102116 -0.03609,-0.211277 -0.01016,-0.109165 -0.02738,-0.198471 -0.03846,-0.198471 -0.0111,0 -0.02808,-0.08066 -0.03776,-0.179259 -0.0097,-0.0986 -0.02738,-0.179267 -0.03921,-0.179267 -0.01183,0 -0.0296,-0.06915 -0.03943,-0.153659 -0.0098,-0.08451 -0.02677,-0.153653 -0.03761,-0.153653 -0.01086,0 -0.02781,-0.06024 -0.03754,-0.133805 -0.0098,-0.0736 -0.02704,-0.145623 -0.03838,-0.160062 -0.01134,-0.01445 -0.0289,-0.07234 -0.03907,-0.128681 -0.01015,-0.05636 -0.02732,-0.11397 -0.03824,-0.128052 -0.01086,-0.01411 -0.02779,-0.06017 -0.03754,-0.102434 -0.02393,-0.103497 -0.07454,-0.217675 -0.09647,-0.217675 -0.0098,0 -0.02427,0.01039 -0.03209,0.02309 -0.0079,0.01273 -0.08345,0.03112 -0.168016,0.04093 -0.08456,0.0098 -0.159467,0.02711 -0.166459,0.03839 -0.007,0.01133 -0.0819,0.02863 -0.166459,0.03846 -0.08456,0.0098 -0.159324,0.02684 -0.166135,0.0379 -0.007,0.01098 -0.09892,0.02815 -0.20466,0.03803 -0.105752,0.0099 -0.198041,0.02738 -0.205102,0.0388 -0.0071,0.01145 -0.107499,0.02912 -0.223227,0.03943 -0.115717,0.01027 -0.228137,0.02842 -0.249831,0.04032 -0.04855,0.02677 -0.464373,0.06846 -1.025394,0.102859 -0.232403,0.01425 -0.448478,0.03119 -0.480164,0.03761 l -0.05761,0.01169 v 1.506183 c 0,0.828403 0.0077,1.513873 0.01708,1.523263 0.0094,0.0094 0.861954,0.01708 1.894588,0.01708 h 1.877524 z m 4.912199,0.04426 c 0.01881,-0.03043 -0.03057,-0.682642 -0.0603,-0.796634 -0.01287,-0.0493 -0.0361,-0.164545 -0.05172,-0.256097 -0.01556,-0.09155 -0.03846,-0.225862 -0.05083,-0.298466 -0.01237,-0.0726 -0.03437,-0.17056 -0.04896,-0.217675 -0.01459,-0.0471 -0.04557,-0.160581 -0.06895,-0.252133 -0.02338,-0.09155 -0.05214,-0.185207 -0.06397,-0.208125 -0.01183,-0.02289 -0.02932,-0.08354 -0.03894,-0.134731 -0.0096,-0.05117 -0.0267,-0.09876 -0.03797,-0.105717 -0.01121,-0.007 -0.02828,-0.05871 -0.03776,-0.114961 -0.0094,-0.05629 -0.02648,-0.102293 -0.03776,-0.102293 -0.01121,0 -0.02822,-0.05187 -0.03776,-0.115245 -0.0094,-0.06341 -0.02808,-0.115233 -0.04136,-0.115233 -0.01321,0 -0.02406,-0.01792 -0.02406,-0.03984 0,-0.02192 -0.02365,-0.09393 -0.05262,-0.160062 -0.02897,-0.06611 -0.06259,-0.143286 -0.07479,-0.171452 -0.06569,-0.151882 -0.21161,-0.467796 -0.236512,-0.512185 -0.01583,-0.02815 -0.07003,-0.12969 -0.120514,-0.2256 -0.123896,-0.235391 -0.230018,-0.409292 -0.38916,-0.637671 -0.02655,-0.03817 -0.04833,-0.08043 -0.04833,-0.0939 0,-0.01348 -0.0086,-0.02835 -0.01922,-0.03306 -0.01063,-0.0048 -0.06404,-0.07436 -0.118806,-0.154793 -0.189085,-0.277637 -0.153845,-0.269782 -0.470146,-0.104807 -0.504025,0.262892 -0.556844,0.288818 -0.58907,0.289143 -0.01764,1.8e-4 -0.03202,0.01098 -0.03202,0.02393 0,0.01293 -0.03458,0.03119 -0.07682,0.04045 -0.04226,0.0092 -0.07682,0.02745 -0.07682,0.04046 0,0.01293 -0.01839,0.02357 -0.04087,0.02357 -0.02248,0 -0.07145,0.0168 -0.108845,0.03734 -0.03742,0.02054 -0.125598,0.06169 -0.196023,0.09149 -0.07043,0.02974 -0.168381,0.07114 -0.217675,0.09193 -0.0493,0.02081 -0.107298,0.04729 -0.128888,0.05892 -0.02157,0.01157 -0.07633,0.02925 -0.121648,0.03921 -0.04529,0.0099 -0.08239,0.02871 -0.08239,0.04171 0,0.01293 -0.02593,0.02399 -0.05761,0.02442 -0.03167,4.77e-4 -0.103721,0.02316 -0.160056,0.05034 -0.05636,0.02718 -0.121924,0.04986 -0.145741,0.05034 -0.02379,4.77e-4 -0.05041,0.01237 -0.05912,0.02648 -0.0087,0.01411 -0.03326,0.02558 -0.05456,0.02558 -0.05,0 -0.119532,0.06908 -0.0887,0.08813 0.013,0.0081 0.03133,0.06058 0.04086,0.116744 0.0094,0.05622 0.02711,0.108255 0.03914,0.115705 0.01203,0.0074 0.02968,0.06514 0.03907,0.128184 0.0094,0.06307 0.02607,0.114642 0.03693,0.114642 0.01086,0 0.02767,0.06341 0.03734,0.140851 0.0097,0.07746 0.02718,0.140852 0.03887,0.140852 0.01169,0 0.02925,0.06915 0.03907,0.153653 0.0098,0.08451 0.02689,0.153658 0.03797,0.153658 0.0111,0 0.02835,0.06625 0.03839,0.147249 0.01004,0.081 0.02725,0.158776 0.03824,0.172863 0.01098,0.01411 0.02808,0.103272 0.03797,0.1982 0.0099,0.09492 0.02732,0.178417 0.03887,0.185525 0.01146,0.0071 0.02918,0.108066 0.03928,0.224348 0.01016,0.116284 0.02573,0.222944 0.03471,0.23703 0.02738,0.04301 0.07961,0.538161 0.108043,1.024371 0.01479,0.253531 0.03216,0.486897 0.03853,0.518582 l 0.01157,0.05761 h 1.829054 c 1.044909,0 1.835119,-0.0098 1.843189,-0.02282 z m -7.975566,-4.28056 c 0.09155,-0.01293 0.226283,-0.02372 0.2994,-0.02406 0.07312,-2.84e-4 0.139198,-0.01062 0.146861,-0.02304 0.0077,-0.01237 0.123583,-0.03077 0.257602,-0.04081 0.13402,-0.01004 0.243677,-0.02725 0.243677,-0.03817 0,-0.01098 0.092,-0.02793 0.204424,-0.03776 0.112435,-0.0098 0.210138,-0.02704 0.217108,-0.03839 0.007,-0.01121 0.08339,-0.02849 0.16982,-0.03831 0.08642,-0.0098 0.175996,-0.02793 0.199044,-0.04038 0.02303,-0.01244 0.08513,-0.02953 0.137941,-0.03797 0.08072,-0.01293 0.09604,-0.02539 0.09604,-0.07823 0,-0.03458 -0.01063,-0.06286 -0.02358,-0.06286 -0.013,0 -0.03119,-0.03458 -0.04045,-0.07682 -0.0092,-0.04226 -0.02752,-0.07682 -0.04047,-0.07682 -0.013,0 -0.02358,-0.01695 -0.02358,-0.03761 0,-0.0509 -0.540124,-1.100488 -0.58683,-1.140382 -0.0083,-0.0071 -0.03693,-0.05311 -0.06375,-0.102435 -0.02684,-0.0493 -0.08155,-0.139185 -0.121649,-0.19975 -0.04011,-0.06058 -0.0729,-0.121074 -0.0729,-0.134448 0,-0.01341 -0.01157,-0.02435 -0.02558,-0.02435 -0.01411,0 -0.02558,-0.01494 -0.02558,-0.03319 0,-0.0314 -0.03077,-0.0777 -0.134449,-0.202427 -0.02462,-0.02968 -0.04481,-0.06417 -0.04481,-0.07668 0,-0.01251 -0.01203,-0.03672 -0.02684,-0.05373 -0.01473,-0.01701 -0.08336,-0.111597 -0.152463,-0.210192 -0.06908,-0.0986 -0.135001,-0.190787 -0.146412,-0.204873 -0.01146,-0.01411 -0.09463,-0.123564 -0.184923,-0.24329 -0.0903,-0.119718 -0.189313,-0.241518 -0.220046,-0.270666 -0.03077,-0.02912 -0.06044,-0.06501 -0.06598,-0.07961 -0.0097,-0.02551 -0.158251,-0.209722 -0.266172,-0.330007 -0.02815,-0.0314 -0.12391,-0.138328 -0.212755,-0.237618 -0.103048,-0.115162 -0.174916,-0.175408 -0.198471,-0.16637 -0.03174,0.01217 -0.03693,0.316266 -0.03693,2.173314 0,1.18753 0.0075,2.178825 0.0168,2.202884 0.01501,0.039 0.04598,0.04184 0.288105,0.02614 0.149226,-0.0097 0.346223,-0.02822 0.437775,-0.04115 z m -1.971902,-2.175708 c 0,-1.323716 -0.0094,-2.202392 -0.02357,-2.202392 -0.01293,0 -0.06994,0.04896 -0.126648,0.108844 -0.230115,0.24295 -0.361562,0.39152 -0.361763,0.408892 -1.23e-4,0.01015 -0.03768,0.05636 -0.08344,0.102824 -0.04578,0.04647 -0.112034,0.122353 -0.147248,0.168651 -0.0352,0.04632 -0.08708,0.110651 -0.115245,0.142989 -0.133556,0.15332 -0.166459,0.196886 -0.166459,0.220412 0,0.01397 -0.0091,0.02539 -0.02006,0.02539 -0.0111,0 -0.03907,0.03167 -0.0623,0.07043 -0.04081,0.06811 -0.08609,0.128944 -0.180103,0.24203 -0.02462,0.02967 -0.04481,0.06943 -0.04481,0.0884 0,0.01895 -0.0096,0.03451 -0.02116,0.03451 -0.01818,0 -0.229369,0.3111 -0.530215,0.781082 -0.1274,0.199017 -0.268079,0.448357 -0.268079,0.47514 0,0.01334 -0.0086,0.02447 -0.01922,0.02476 -0.01063,2.91e-4 -0.04799,0.06341 -0.08323,0.14032 -0.03519,0.07689 -0.07175,0.140028 -0.0812,0.140318 -0.0094,2.91e-4 -0.02476,0.03513 -0.03402,0.07735 -0.0092,0.04226 -0.02655,0.07682 -0.03838,0.07682 -0.01183,0 -0.02912,0.03458 -0.03846,0.07682 -0.0092,0.04226 -0.02655,0.07682 -0.03839,0.07682 -0.01183,0 -0.02912,0.03458 -0.03839,0.07682 -0.0092,0.04226 -0.02745,0.07682 -0.04045,0.07682 -0.01293,0 -0.02393,0.01438 -0.02442,0.03202 -4.78e-4,0.01764 -0.02316,0.07812 -0.05034,0.134448 -0.07235,0.149787 -0.06673,0.192066 0.02558,0.192066 0.04225,0 0.07682,0.01039 0.07682,0.02309 0,0.01273 0.06916,0.03112 0.153701,0.04094 0.08454,0.0098 0.159398,0.02704 0.166355,0.03831 0.007,0.01121 0.09338,0.02856 0.192025,0.03853 0.09866,0.0099 0.179364,0.02704 0.179364,0.03803 0,0.01098 0.08932,0.02829 0.198477,0.03846 0.109153,0.01016 0.209991,0.02593 0.224078,0.03499 0.03057,0.01977 0.403545,0.07002 0.792492,0.106791 0.154163,0.01459 0.285734,0.03194 0.292366,0.03858 0.007,0.007 0.08506,0.01203 0.174261,0.01203 h 0.162193 z m 5.493169,1.357995 c 0.02815,-0.01273 0.08003,-0.03098 0.115233,-0.04059 0.03519,-0.0096 0.121649,-0.04378 0.192074,-0.07595 0.254056,-0.115954 0.315721,-0.140243 0.355995,-0.140243 0.02253,0 0.04093,-0.01062 0.04093,-0.02358 0,-0.013 0.03458,-0.03119 0.07682,-0.04046 0.04225,-0.0092 0.07682,-0.02655 0.07682,-0.03839 0,-0.01183 0.03458,-0.02912 0.07682,-0.03846 0.04226,-0.0092 0.07682,-0.02621 0.07682,-0.03768 0,-0.01146 0.03002,-0.02836 0.06673,-0.03756 0.03672,-0.0092 0.166355,-0.06654 0.288107,-0.127352 0.335415,-0.16758 0.385405,-0.195345 0.403047,-0.223892 0.01425,-0.02304 -0.328894,-0.378864 -0.502856,-0.521472 -0.03464,-0.02835 -0.132553,-0.109058 -0.217606,-0.179267 -0.225274,-0.185954 -0.308978,-0.248475 -0.707032,-0.528077 -0.306266,-0.215129 -1.137851,-0.667566 -1.519979,-0.826978 -0.05636,-0.02352 -0.12245,-0.05373 -0.146909,-0.06708 -0.02449,-0.01341 -0.05905,-0.02476 -0.07682,-0.02524 -0.01777,-4.78e-4 -0.07847,-0.02316 -0.134802,-0.05034 -0.05636,-0.02718 -0.128363,-0.04986 -0.160055,-0.05034 -0.03167,-4.78e-4 -0.05761,-0.01146 -0.05761,-0.0242 0,-0.01286 -0.04606,-0.03112 -0.102306,-0.04066 -0.05629,-0.0096 -0.108396,-0.02718 -0.115835,-0.03921 -0.0074,-0.01203 -0.06528,-0.02967 -0.128494,-0.03914 -0.06322,-0.0094 -0.121261,-0.02745 -0.128958,-0.03991 -0.02786,-0.04509 -0.06535,-0.02164 -0.04875,0.03056 0.01411,0.04447 0.201583,0.316475 0.293501,0.425896 0.01431,0.01702 0.026,0.03839 0.026,0.04751 0,0.0091 0.03458,0.06024 0.07682,0.113603 0.04225,0.05339 0.07682,0.108786 0.07682,0.123197 0,0.01438 0.0086,0.03001 0.01922,0.03472 0.02919,0.01293 0.134449,0.169246 0.134449,0.19957 0,0.01467 0.0099,0.02663 0.02206,0.02663 0.0121,0 0.04959,0.05187 0.08319,0.115233 0.03361,0.06341 0.0698,0.115244 0.08038,0.115244 0.01062,0 0.01922,0.01646 0.01922,0.03657 0,0.02013 0.01508,0.0518 0.03347,0.07043 0.0184,0.0186 0.04156,0.0511 0.05153,0.07226 0.0099,0.02116 0.04081,0.07298 0.0686,0.115244 0.02781,0.04226 0.063,0.10541 0.07815,0.140326 0.01515,0.03492 0.03555,0.0695 0.04523,0.07682 0.01909,0.01445 0.09874,0.160014 0.25252,0.46149 0.05388,0.105633 0.105705,0.197945 0.115175,0.205129 0.0094,0.0072 0.0251,0.0446 0.03478,0.08323 0.0097,0.03858 0.02697,0.07017 0.03838,0.07017 0.01146,0 0.02835,0.03458 0.03769,0.07682 0.0092,0.04226 0.02655,0.07682 0.03846,0.07682 0.01183,0 0.02912,0.03458 0.03838,0.07682 0.0092,0.04226 0.02745,0.07682 0.04045,0.07682 0.013,0 0.02357,0.01266 0.02357,0.02815 0,0.0289 0.03582,0.115848 0.143203,0.347704 l 0.0614,0.132561 0.147387,-0.0502 c 0.08107,-0.02766 0.170437,-0.06065 0.19861,-0.07334 z m -9.317903,-0.02636 c 0.0083,-0.04226 0.02454,-0.07682 0.03575,-0.07682 0.01121,0 0.02794,-0.03458 0.03727,-0.07682 0.0092,-0.04226 0.02621,-0.07682 0.03769,-0.07682 0.01146,0 0.02822,-0.03167 0.03727,-0.07042 0.01591,-0.06811 0.09101,-0.236373 0.117134,-0.2625 0.0071,-0.0071 0.08766,-0.162614 0.179169,-0.345718 0.0915,-0.183112 0.172165,-0.338687 0.17926,-0.345727 0.0071,-0.0071 0.02925,-0.04163 0.04916,-0.07682 0.01991,-0.03519 0.06932,-0.121641 0.109755,-0.192068 0.04045,-0.07043 0.08737,-0.156859 0.104312,-0.192065 0.01694,-0.03519 0.04536,-0.07926 0.06314,-0.09787 0.01777,-0.0186 0.03229,-0.0491 0.03229,-0.0677 0,-0.01861 0.01729,-0.04045 0.03846,-0.04862 0.02116,-0.0082 0.03839,-0.03237 0.03839,-0.05395 0,-0.02158 0.01121,-0.03921 0.0251,-0.03921 0.01382,0 0.03237,-0.02884 0.04122,-0.06404 0.0089,-0.03519 0.02636,-0.06404 0.03894,-0.06404 0.01259,0 0.02282,-0.01196 0.02282,-0.02662 0,-0.03029 0.105291,-0.186609 0.134448,-0.19957 0.01063,-0.0048 0.01922,-0.02033 0.01922,-0.03471 0,-0.01438 0.03458,-0.06985 0.07682,-0.123196 0.04226,-0.05332 0.07682,-0.104466 0.07682,-0.113604 0,-0.0091 0.01203,-0.0305 0.02677,-0.04751 0.01474,-0.01701 0.0832,-0.111596 0.152144,-0.210192 0.06895,-0.0986 0.143313,-0.197516 0.165269,-0.219825 0.05013,-0.0509 0.05194,-0.1259 0.0027,-0.1259 -0.02025,0 -0.04343,0.01051 -0.05138,0.02338 -0.0079,0.01286 -0.0614,0.03133 -0.118848,0.04101 -0.05739,0.0097 -0.135139,0.03368 -0.172724,0.05332 -0.03754,0.01965 -0.08781,0.03575 -0.111632,0.03582 -0.02379,7.6e-5 -0.04964,0.01039 -0.05733,0.02289 -0.0078,0.01251 -0.054,0.03022 -0.102872,0.03935 -0.04889,0.0091 -0.121013,0.03347 -0.160339,0.05394 -0.03935,0.02054 -0.09168,0.03735 -0.116319,0.03749 -0.02461,7.5e-5 -0.04481,0.01169 -0.04481,0.0258 0,0.01411 -0.01266,0.02558 -0.02815,0.02558 -0.02808,0 -0.121406,0.03797 -0.320388,0.130388 -0.05788,0.0269 -0.118383,0.04889 -0.134448,0.04889 -0.01605,0 -0.02918,0.01062 -0.02918,0.02358 0,0.013 -0.03458,0.03119 -0.07683,0.04045 -0.04226,0.0092 -0.07682,0.02621 -0.07682,0.03768 0,0.01146 -0.0316,0.02871 -0.07017,0.03838 -0.03858,0.0097 -0.07604,0.02539 -0.08323,0.03478 -0.0072,0.0094 -0.06494,0.04371 -0.128305,0.07615 -0.161067,0.08239 -0.326606,0.178464 -0.455847,0.264574 -0.06058,0.04039 -0.121067,0.07338 -0.134448,0.07338 -0.01334,0 -0.02435,0.01027 -0.02435,0.02282 0,0.01258 -0.02883,0.03009 -0.06404,0.03887 -0.0352,0.0089 -0.06404,0.026 -0.06404,0.0381 0,0.0121 -0.06915,0.06612 -0.153653,0.119927 -0.08451,0.0538 -0.153652,0.107086 -0.153652,0.118321 0,0.01121 -0.01146,0.02047 -0.02539,0.02047 -0.03749,0 -0.299967,0.203803 -0.453543,0.35213 -0.04736,0.04578 -0.09045,0.08324 -0.09566,0.08324 -0.01438,0 -0.180551,0.147891 -0.364002,0.323956 l -0.164108,0.157504 0.08398,0.04911 c 0.168202,0.09832 0.405771,0.212108 0.442886,0.212108 0.02088,0 0.03803,0.01062 0.03803,0.02357 0,0.01293 0.03458,0.03119 0.07682,0.04045 0.04226,0.0092 0.07682,0.02697 0.07682,0.03928 0,0.0123 0.04032,0.03002 0.08963,0.03921 0.0493,0.0092 0.08964,0.02655 0.08964,0.03838 0,0.01189 0.04032,0.02918 0.08962,0.03838 0.0493,0.0092 0.08963,0.02655 0.08963,0.03838 0,0.01189 0.04032,0.02918 0.08964,0.03844 0.0493,0.0092 0.08963,0.02614 0.08963,0.03754 0,0.01145 0.03706,0.02883 0.08239,0.0388 0.0453,0.0099 0.10005,0.02759 0.121642,0.03921 0.05138,0.02766 0.176915,0.07828 0.525829,0.212135 0.154635,0.05933 0.191092,0.05325 0.208718,-0.03485 z"
       id="path300" /></g></svg>
