<?xml version="1.0" encoding="UTF-8" standalone="no"?>
<svg
   width="40"
   height="40"
   viewBox="0 0 40 40"
   fill="none"
   version="1.1"
   id="svg6"
   sodipodi:docname="website.svg"
   inkscape:version="1.1.1 (c3084ef, 2021-09-22)"
   xmlns:inkscape="http://www.inkscape.org/namespaces/inkscape"
   xmlns:sodipodi="http://sodipodi.sourceforge.net/DTD/sodipodi-0.dtd"
   xmlns="http://www.w3.org/2000/svg"
   xmlns:svg="http://www.w3.org/2000/svg">
  <defs
     id="defs10" />
  <sodipodi:namedview
     id="namedview8"
     pagecolor="#ffffff"
     bordercolor="#666666"
     borderopacity="1.0"
     inkscape:pageshadow="2"
     inkscape:pageopacity="0.0"
     inkscape:pagecheckerboard="0"
     showgrid="false"
     inkscape:zoom="2.6776304"
     inkscape:cx="11.203936"
     inkscape:cy="-7.4692907"
     inkscape:window-width="1296"
     inkscape:window-height="792"
     inkscape:window-x="0"
     inkscape:window-y="25"
     inkscape:window-maximized="0"
     inkscape:current-layer="svg6" />
  <path
     d="M33.75 0H6.25C2.79822 0 0 2.79822 0 6.25V33.75C0 37.2018 2.79822 40 6.25 40H33.75C37.2018 40 40 37.2018 40 33.75V6.25C40 2.79822 37.2018 0 33.75 0Z"
     fill="#1877F2"
     id="path2"
     style="fill:#2a7fff" />
  <path
     style="fill:#ffffff;stroke-width:0.060131"
     d="m 28.768203,32.141557 c -0.788093,-1.06462 -1.460196,-1.97192 -1.49356,-2.016223 -0.04569,-0.06067 -0.320357,0.313205 -1.112424,1.514171 -0.578469,0.877097 -1.066032,1.594984 -1.083482,1.595306 -0.03417,6.43e-4 -2.764075,-12.104266 -2.736305,-12.133174 0.0092,-0.0096 2.522063,1.329547 5.584202,2.975768 3.062138,1.64622 5.548259,3.009995 5.524716,3.030608 -0.02356,0.02062 -0.847813,0.262669 -1.831706,0.537899 -0.983898,0.275231 -1.7889,0.523063 -1.7889,0.550742 0,0.02768 0.651745,0.930662 1.44832,2.006635 0.796574,1.075972 1.435528,1.988659 1.419899,2.028194 -0.0276,0.0698 -2.399466,1.845748 -2.465098,1.845748 -0.01803,0 -0.677569,-0.871053 -1.465662,-1.935674 z m -9.911368,0.725339 C 13.176022,32.382111 8.3135389,28.253383 6.9260076,22.736448 6.6221716,21.528365 6.533599,20.77649 6.533599,19.405262 c 0,-1.412521 0.091121,-2.150775 0.4230027,-3.427468 0.9612564,-3.697701 3.4998903,-6.8427017 6.9385223,-8.5958205 1.9289,-0.9834123 3.909673,-1.4592587 6.074134,-1.459204 1.61917,4.01e-5 2.780062,0.1827578 4.270277,0.6721161 2.903569,0.9534754 5.359845,2.8452352 7.068962,5.4443284 1.043414,1.586744 1.722921,3.341188 2.049436,5.291528 0.08719,0.520826 0.110235,0.974629 0.108365,2.134652 -0.0025,1.61463 -0.08655,2.275086 -0.45743,3.598268 -0.185704,0.662564 -0.518627,1.572999 -0.575202,1.572999 -0.02781,0 -1.585818,-0.829283 -1.621362,-0.863001 -0.0059,-0.0055 0.07989,-0.269792 0.190498,-0.587249 0.672819,-1.931087 0.813772,-4.168016 0.38792,-6.156325 -0.167027,-0.779865 -0.42521,-1.593471 -0.505657,-1.593471 -0.03807,0 -0.297625,0.08347 -0.5768,0.185476 -0.809562,0.295817 -2.596986,0.807825 -3.543224,1.014954 -0.479007,0.104852 -0.876291,0.196016 -0.882856,0.202581 -0.0065,0.0065 0.01842,0.227989 0.05557,0.492051 0.07219,0.513461 0.101566,3.720302 0.0347,3.787199 -0.02199,0.022 -0.430549,-0.170852 -0.907905,-0.428559 l -0.867926,-0.468556 -0.04284,-1.174919 c -0.04098,-1.12411 -0.100498,-1.832366 -0.158689,-1.888414 -0.01492,-0.01437 -0.351832,0.01309 -0.748695,0.06104 -1.178098,0.142313 -4.409398,0.174533 -5.754635,0.05738 -0.618502,-0.05387 -1.244919,-0.114428 -1.392036,-0.134597 l -0.267492,-0.03666 -0.0511,0.533495 c -0.12076,1.260494 -0.0096,4.638248 0.155993,4.740594 0.0232,0.01434 0.392005,-0.01476 0.819522,-0.06469 0.896102,-0.104651 3.032779,-0.187812 3.691992,-0.143702 l 0.44932,0.03007 0.162221,0.721573 c 0.08923,0.396864 0.179144,0.809513 0.199817,0.916998 l 0.0376,0.195425 h -1.434601 c -1.219693,0 -3.229519,0.1206 -3.482862,0.208979 -0.161757,0.05643 0.449679,1.80522 1.093767,3.128292 0.626009,1.28594 1.384986,2.437713 2.233942,3.390083 l 0.234683,0.263272 0.468225,-0.563926 c 0.527109,-0.634845 1.169312,-1.560576 1.514729,-2.183475 0.127159,-0.22931 0.239489,-0.391663 0.249614,-0.360786 0.108004,0.329367 1.022208,4.576663 0.991825,4.607934 -0.06976,0.07181 -1.388506,0.285597 -2.145363,0.347806 -0.824073,0.06773 -1.310746,0.06624 -2.164714,-0.0067 z m -1.879089,-2.558253 c -0.951029,-1.410429 -1.85381,-3.347299 -2.321421,-4.980476 -0.162026,-0.565888 -0.230654,-0.725079 -0.31809,-0.737828 -0.313681,-0.04573 -4.050601,1.019317 -4.049581,1.154166 0.0011,0.130964 0.813593,1.156899 1.37528,1.73633 1.423649,1.468613 3.067519,2.478763 4.968051,3.052836 0.29765,0.08991 0.550369,0.154894 0.561602,0.144414 0.01122,-0.01055 -0.0859,-0.176728 -0.215841,-0.369442 z M 9.8410349,23.860955 c 0.7601481,-0.277418 2.3240671,-0.724809 3.2958681,-0.942848 0.491962,-0.110381 0.900655,-0.208568 0.908202,-0.218197 0.0076,-0.0096 -0.02252,-0.288096 -0.06685,-0.618817 -0.128013,-0.95525 -0.172115,-3.293324 -0.08176,-4.334754 0.04278,-0.493154 0.07485,-0.90829 0.07125,-0.922521 -0.0036,-0.01424 -0.39326,-0.115778 -0.865926,-0.225659 -1.116635,-0.259586 -1.719102,-0.430734 -2.95459,-0.839336 -0.5570602,-0.184233 -1.034981,-0.311803 -1.0620475,-0.28349 -0.027061,0.02832 -0.118623,0.28148 -0.203465,0.562593 -0.7486379,2.480543 -0.6527057,5.113462 0.2744131,7.53141 0.09828,0.256307 0.1850684,0.466016 0.1928729,0.466016 0.00788,0 0.2292172,-0.07847 0.4920391,-0.174397 z M 22.960777,15.37448 c 0.463963,-0.05208 0.676474,-0.09975 0.676474,-0.15174 0,-0.04169 -0.09375,-0.398418 -0.208345,-0.792728 C 23.01252,12.997187 22.165409,11.13158 21.319439,9.7842999 20.841258,9.0227484 20.02402,7.9227187 19.935359,7.9212788 c -0.0812,-0.00132 -0.73829,0.8701153 -1.246091,1.6525624 -1.004737,1.5481508 -1.778625,3.2312678 -2.281399,4.9617678 -0.156738,0.539482 -0.178322,0.676289 -0.113053,0.716625 0.04437,0.02742 0.476617,0.08233 0.960557,0.122029 0.483939,0.0397 0.920477,0.08192 0.970089,0.09382 0.217641,0.05225 4.123819,-0.02495 4.735317,-0.09361 z m -8.452345,-1.055264 c 0.502264,-1.855457 1.294376,-3.667636 2.358912,-5.3966714 0.312599,-0.5077281 0.473648,-0.8219128 0.421302,-0.8219128 -0.187879,0 -1.715157,0.5429745 -2.250131,0.799962 -1.582029,0.7599634 -2.993315,1.8761752 -4.082843,3.2291972 -0.560974,0.696637 -1.0652405,1.490742 -0.9916477,1.56161 0.1968937,0.1896 4.0774137,1.302294 4.3228547,1.239527 0.03306,-0.0084 0.132768,-0.283728 0.221553,-0.611712 z m 12.492272,0.334589 c 0.902464,-0.222667 2.994294,-0.869429 3.084412,-0.953655 0.0489,-0.04571 -0.416419,-0.795581 -0.841784,-1.356528 C 29.091294,12.143125 28.68097,11.685371 28.331496,11.326392 26.842506,9.7968928 25.185869,8.7996367 23.177818,8.2239979 22.825757,8.1230728 22.513216,8.0405002 22.483281,8.0405002 c -0.02995,0 0.02459,0.1150033 0.121201,0.2555571 1.148279,1.6708347 2.347629,4.3335187 2.805819,6.2292077 l 0.106735,0.4416 0.273877,-0.04107 c 0.150631,-0.02259 0.695037,-0.144984 1.209791,-0.271987 z"
     id="path839" />
</svg>
